<svg width="55" height="69" viewBox="0 0 55 69" fill="none" xmlns="http://www.w3.org/2000/svg">
<g filter="url(#filter0_d_1_115)">
<path d="M27.47 64.08C22.19 64.08 17.51 63.21 13.43 61.47C9.35 59.67 6.14 57.33 3.8 54.45L10.46 45.9C12.5 48 15.02 49.68 18.02 50.94C21.02 52.14 24.02 52.74 27.02 52.74C30.62 52.74 33.41 52.05 35.39 50.67C37.37 49.23 38.36 47.37 38.36 45.09C38.36 42.69 37.4 40.95 35.48 39.87C33.56 38.73 30.5 38.16 26.3 38.16C22.52 38.16 20.03 38.22 18.83 38.34V26.82C19.55 26.88 22.04 26.91 26.3 26.91C33.68 26.91 37.37 24.78 37.37 20.52C37.37 18.24 36.32 16.5 34.22 15.3C32.18 14.04 29.51 13.41 26.21 13.41C20.39 13.41 15.32 15.48 11 19.62L4.61 11.61C10.25 5.25 17.9 2.07 27.56 2.07C34.58 2.07 40.1 3.54 44.12 6.48C48.2 9.42 50.24 13.38 50.24 18.36C50.24 21.96 48.95 24.99 46.37 27.45C43.79 29.85 40.7 31.38 37.1 32.04C40.64 32.4 43.85 33.87 46.73 36.45C49.67 38.97 51.14 42.3 51.14 46.44C51.14 51.66 48.98 55.92 44.66 59.22C40.34 62.46 34.61 64.08 27.47 64.08Z" fill="black"/>
</g>
<defs>
<filter id="filter0_d_1_115" x="0.799805" y="0.0700684" width="53.3403" height="68.01" filterUnits="userSpaceOnUse" color-interpolation-filters="sRGB">
<feFlood flood-opacity="0" result="BackgroundImageFix"/>
<feColorMatrix in="SourceAlpha" type="matrix" values="0 0 0 0 0 0 0 0 0 0 0 0 0 0 0 0 0 0 127 0" result="hardAlpha"/>
<feOffset dy="1"/>
<feGaussianBlur stdDeviation="1.5"/>
<feColorMatrix type="matrix" values="0 0 0 0 0 0 0 0 0 0 0 0 0 0 0 0 0 0 0.25 0"/>
<feBlend mode="normal" in2="BackgroundImageFix" result="effect1_dropShadow_1_115"/>
<feBlend mode="normal" in="SourceGraphic" in2="effect1_dropShadow_1_115" result="shape"/>
</filter>
</defs>
</svg>
