<svg width="54" height="69" viewBox="0 0 54 69" fill="none" xmlns="http://www.w3.org/2000/svg">
<g filter="url(#filter0_d_1_117)">
<path d="M26.54 64.08C16.64 64.08 8.93 61.08 3.41 55.08L10.52 46.17C14.72 50.55 20.03 52.74 26.45 52.74C29.87 52.74 32.57 51.9 34.55 50.22C36.59 48.48 37.61 46.35 37.61 43.83C37.61 41.13 36.65 38.97 34.73 37.35C32.81 35.73 30.17 34.92 26.81 34.92C21.83 34.92 17.63 36.54 14.21 39.78L5.3 37.44V2.97H46.52V14.22H18.08V28.89C21.44 25.53 25.85 23.85 31.31 23.85C36.65 23.85 41.18 25.62 44.9 29.16C48.68 32.7 50.57 37.41 50.57 43.29C50.57 49.65 48.38 54.72 44 58.5C39.62 62.22 33.8 64.08 26.54 64.08Z" fill="black"/>
</g>
<defs>
<filter id="filter0_d_1_117" x="0.410156" y="0.969971" width="53.1597" height="67.1101" filterUnits="userSpaceOnUse" color-interpolation-filters="sRGB">
<feFlood flood-opacity="0" result="BackgroundImageFix"/>
<feColorMatrix in="SourceAlpha" type="matrix" values="0 0 0 0 0 0 0 0 0 0 0 0 0 0 0 0 0 0 127 0" result="hardAlpha"/>
<feOffset dy="1"/>
<feGaussianBlur stdDeviation="1.5"/>
<feColorMatrix type="matrix" values="0 0 0 0 0 0 0 0 0 0 0 0 0 0 0 0 0 0 0.25 0"/>
<feBlend mode="normal" in2="BackgroundImageFix" result="effect1_dropShadow_1_117"/>
<feBlend mode="normal" in="SourceGraphic" in2="effect1_dropShadow_1_117" result="shape"/>
</filter>
</defs>
</svg>
