<svg width="100" height="100" viewBox="0 0 100 100" fill="none" xmlns="http://www.w3.org/2000/svg">
<path d="M52.3457 94.2461C52.3457 93.7925 52.2155 93.4356 51.9553 93.1753C51.6987 92.9151 51.2173 92.666 50.5108 92.428C49.8044 92.1901 49.2858 91.9242 48.9549 91.6305C48.5199 91.2476 48.3024 90.7419 48.3024 90.1136C48.3024 89.4927 48.5161 88.987 48.9437 88.5966C49.3713 88.2062 49.9234 88.011 50.6001 88.011C51.2916 88.011 51.8568 88.2378 52.2955 88.6914C52.7342 89.145 52.9536 89.7288 52.9536 90.4426H52.3122C52.3122 89.8961 52.1579 89.4555 51.8493 89.1209C51.5444 88.7825 51.128 88.6134 50.6001 88.6134C50.087 88.6134 49.6817 88.7528 49.3843 89.0316C49.0906 89.3068 48.9437 89.6637 48.9437 90.1024C48.9437 90.5114 49.0831 90.846 49.362 91.1063C49.6408 91.3665 50.0851 91.5989 50.6949 91.8034C51.3046 92.0042 51.7657 92.2142 52.078 92.4336C52.3903 92.6492 52.6208 92.9039 52.7695 93.1976C52.9182 93.4914 52.9926 93.8371 52.9926 94.235C52.9926 94.8707 52.777 95.3838 52.3457 95.7742C51.9181 96.1609 51.3511 96.3542 50.6447 96.3542C50.1688 96.3542 49.7338 96.2575 49.3397 96.0642C48.9493 95.8672 48.6426 95.5865 48.4195 95.2221C48.2001 94.854 48.0904 94.4209 48.0904 93.9227H48.7262C48.7262 94.4952 48.8991 94.9451 49.2449 95.2723C49.5906 95.5995 50.0573 95.7631 50.6447 95.7631C51.1578 95.7631 51.5686 95.6255 51.8772 95.3504C52.1895 95.0752 52.3457 94.7071 52.3457 94.2461ZM59.0883 88.7249H56.7794V96.2427H56.138V88.7249H53.8347V88.1226H59.0883V88.7249ZM65.2787 93.0638C65.2787 94.1123 65.0482 94.9228 64.5872 95.4954C64.1298 96.0679 63.4866 96.3542 62.6575 96.3542C61.8358 96.3542 61.1908 96.0679 60.7223 95.4954C60.2576 94.9228 60.0233 94.1178 60.0196 93.0805V91.3126C60.0196 90.2679 60.252 89.4573 60.7167 88.8811C61.1815 88.301 61.8247 88.011 62.6464 88.011C63.4792 88.011 64.1261 88.301 64.5872 88.8811C65.0482 89.4611 65.2787 90.2772 65.2787 91.3294V93.0638ZM64.6374 91.3015C64.6374 90.4129 64.4663 89.7455 64.1243 89.2993C63.7822 88.8532 63.2896 88.6301 62.6464 88.6301C62.0255 88.6301 61.5403 88.8495 61.1908 89.2882C60.8413 89.7232 60.6628 90.3757 60.6554 91.2457V93.0638C60.6554 93.9561 60.832 94.6272 61.1852 95.0771C61.5384 95.5232 62.0292 95.7463 62.6575 95.7463C63.3045 95.7463 63.7952 95.5232 64.1298 95.0771C64.4682 94.6309 64.6374 93.9598 64.6374 93.0638V91.3015ZM72.0882 96.2427H71.4524L67.621 89.3272V96.2427H66.9797V88.1226H67.621L71.458 95.0492V88.1226H72.0882V96.2427ZM77.8046 92.3555H74.6536V95.6515H78.2787V96.2427H74.0178V88.1226H78.2508V88.7249H74.6536V91.7644H77.8046V92.3555Z" fill="black"/>
<path d="M21.44 95.6515H24.7861V96.2427H20.7986V88.1226H21.44V95.6515ZM26.8496 96.2427H26.2138V88.1226H26.8496V96.2427ZM32.6441 92.4615H29.521V96.2427H28.8852V88.1226H33.1126V88.7249H29.521V91.8592H32.6441V92.4615ZM38.2713 92.3555H35.1203V95.6515H38.7453V96.2427H34.4845V88.1226H38.7174V88.7249H35.1203V91.7644H38.2713V92.3555Z" fill="black"/>
<path d="M18.6201 83.73H24.3701" stroke="black" stroke-miterlimit="10"/>
<path d="M29.3701 83.73H82.7501" stroke="black" stroke-miterlimit="10"/>
<path d="M25.6499 83.8099L26.8499 82.4399L28.2199 83.6399L27.0199 85.0099L25.6499 83.8099Z" fill="black" stroke="black" stroke-width="0.5" stroke-miterlimit="10"/>
<path d="M34.8899 24.9499C34.8899 24.9499 28.4299 26.5999 27.0799 29.2999C24.8499 33.7399 25.4999 36.5499 24.9799 46.2399C24.8499 48.5999 23.6799 68.3299 24.0599 73.3899C24.1099 74.0399 24.2499 75.3099 25.1799 76.0699C25.8999 76.6499 26.7699 76.6699 27.2299 76.6699C30.3799 76.6699 35.49 77.1199 36.99 76.6699C38.49 76.2199 40.8899 75.6199 40.5899 72.6199C40.2899 69.6199 38.04 27.4999 38.04 27.4999C38.04 27.4999 38.0499 24.7999 34.8899 24.9499Z" fill="black"/>
<path d="M67.0301 20.9102C63.4601 21.0102 60.7601 21.7302 59.0201 22.3302C57.9501 22.7002 57.1401 22.9902 56.2201 23.6002C54.8901 24.4802 52.5201 25.9202 52.0201 29.6002C51.5701 32.9002 50.6701 67.5202 52.0201 70.9702C53.3701 74.4202 55.3201 77.5702 57.7301 78.0202C60.1401 78.4702 69.5901 78.4702 71.7001 78.0202C73.8101 77.5702 79.0601 74.1202 79.2101 71.8702C79.3601 69.6202 76.9601 50.9102 76.9601 50.9102C76.9601 50.9102 74.7101 29.4502 73.6601 26.6002C72.6101 23.7502 71.5601 22.5502 70.3601 21.8002C69.1301 21.0602 67.0301 20.9102 67.0301 20.9102Z" fill="black"/>
<path d="M23.3299 12.9102C20.7599 15.2202 18.4999 19.4102 19.7899 22.6702C19.9299 23.0102 20.3799 24.1202 21.4899 24.9202C23.2999 26.2102 25.6199 25.6202 26.4399 25.6302C29.6399 25.6802 71.3999 20.5102 71.3999 20.5102C71.8699 20.4102 72.5799 20.2002 73.3199 19.7002C73.5099 19.5702 74.4299 18.9302 75.1599 17.5502C75.4899 16.9302 76.0399 15.6602 76.0099 12.5702C75.9899 9.97018 75.9699 7.98018 74.8399 5.71018C74.3299 4.69018 73.4499 2.92018 71.6399 2.26018C70.5699 1.87018 69.5899 2.02018 69.1699 2.10018C65.7399 2.79018 41.4099 7.66018 41.4099 7.66018C37.3899 8.47018 33.3699 9.27018 29.3499 10.0802C27.8299 10.3402 25.4399 11.0102 23.3299 12.9102Z" fill="black" stroke="black" stroke-width="0.25" stroke-miterlimit="10"/>
</svg>
